<?xml version="1.0" standalone="no"?>
<svg viewBox="0 0 200 200" xmlns="http://www.w3.org/2000/svg">
  <path fill="#F1C21B" d="M11.1,-25.1C15.5,-16.6,21.2,-16,30.6,-13.2C40,-10.3,53.2,-5.2,53.3,0.1C53.5,5.3,40.6,10.7,34.7,19.5C28.7,28.3,29.6,40.5,24.9,48C20.3,55.5,10.1,58.3,-1.4,60.8C-12.9,63.2,-25.9,65.2,-35.8,60.7C-45.6,56.2,-52.5,45.2,-48.3,34C-44.1,22.8,-28.9,11.4,-28.1,0.4C-27.4,-10.5,-41,-21.1,-45,-31.8C-48.9,-42.5,-43,-53.4,-33.9,-59.2C-24.8,-65.1,-12.4,-65.8,-4.5,-57.9C3.3,-50.1,6.6,-33.6,11.1,-25.1Z" transform="translate(100 100)" />
</svg>
