<?xml version="1.0" standalone="no"?>
<svg viewBox="0 0 200 200" xmlns="http://www.w3.org/2000/svg">
  <path fill="#0F62FE" d="M24.6,-43.5C33.8,-37.3,44.7,-34.6,43,-28C41.3,-21.4,27.2,-10.7,22.7,-2.6C18.2,5.5,23.4,11,28.3,23.2C33.2,35.4,37.7,54.3,32.9,65C28.2,75.6,14.1,78.1,-0.5,78.9C-15,79.7,-30,78.8,-40.5,71.5C-51,64.1,-57,50.2,-54.9,37.2C-52.8,24.2,-42.6,12.1,-38.9,2.1C-35.3,-7.9,-38.1,-15.7,-39.4,-27.5C-40.8,-39.2,-40.7,-54.7,-33.9,-62.4C-27,-70,-13.5,-69.7,-2.9,-64.7C7.7,-59.6,15.3,-49.7,24.6,-43.5Z" transform="translate(100 100)" />
</svg>
