<?xml version="1.0" standalone="no"?>
<svg viewBox="0 0 200 200" xmlns="http://www.w3.org/2000/svg">
  <path fill="#8A3FFC" d="M21.9,-35.9C32.7,-31.8,48.8,-34.6,55.4,-29.8C62.1,-24.9,59.4,-12.5,51.5,-4.6C43.6,3.3,30.4,6.6,28.7,20.1C27,33.5,36.8,57.1,33.9,70.5C31,84,15.5,87.4,0.4,86.6C-14.7,85.9,-29.3,81,-42.8,73.7C-56.3,66.3,-68.6,56.5,-70.2,43.8C-71.7,31.2,-62.5,15.6,-53.3,5.3C-44,-4.9,-34.9,-9.9,-29.8,-16.4C-24.7,-23,-23.7,-31.2,-19.4,-39C-15.1,-46.9,-7.6,-54.5,-1,-52.7C5.6,-51,11.1,-40,21.9,-35.9Z" transform="translate(100 100)" />
</svg>
