<?xml version="1.0" standalone="no"?>
<svg viewBox="0 0 200 200" xmlns="http://www.w3.org/2000/svg">
  <path fill="#FF0066" d="M17.4,-29.1C23.4,-26.6,29.7,-23.7,32.8,-18.8C36,-13.8,36,-6.9,40.5,2.6C44.9,12,53.8,24.1,52.7,32.6C51.6,41.1,40.5,46.1,30.1,54.5C19.7,62.9,9.8,74.7,-2,78.1C-13.8,81.5,-27.6,76.6,-30.7,64C-33.9,51.4,-26.3,31.1,-23.7,19.2C-21.2,7.2,-23.5,3.6,-26.2,-1.6C-28.9,-6.7,-31.9,-13.4,-35.1,-26.5C-38.3,-39.5,-41.7,-58.8,-35.9,-61.4C-30.1,-64,-15,-50,-4.7,-41.9C5.7,-33.7,11.4,-31.6,17.4,-29.1Z" transform="translate(100 100)" />
</svg>
