<?xml version="1.0" standalone="no"?>
<svg viewBox="0 0 200 200" xmlns="http://www.w3.org/2000/svg">
  <path fill="#FA4D56" d="M30.6,-60C38.8,-48.2,44,-38.3,49.8,-28.6C55.7,-18.9,62.3,-9.5,67.8,3.2C73.3,15.8,77.7,31.6,71.5,40.9C65.4,50.2,48.8,53,35.1,55.4C21.5,57.8,10.7,59.7,3.3,54.1C-4.2,48.4,-8.4,35.1,-10.6,26.1C-12.8,17.1,-12.9,12.3,-21.7,8.7C-30.4,5,-47.8,2.5,-58.1,-5.9C-68.3,-14.4,-71.5,-28.7,-67.7,-41C-64,-53.3,-53.3,-63.5,-40.8,-72.8C-28.4,-82.1,-14.2,-90.5,-1.5,-87.9C11.2,-85.3,22.4,-71.7,30.6,-60Z" transform="translate(100 100)" />
</svg>
