<?xml version="1.0" standalone="no"?>
<svg viewBox="0 0 200 200" xmlns="http://www.w3.org/2000/svg">
  <path fill="#08BDBA" d="M14.8,-20.4C25.7,-19.2,45.7,-28.6,55.2,-26.9C64.6,-25.3,63.6,-12.6,62.4,-0.7C61.3,11.3,60,22.6,54.6,31.3C49.2,40.1,39.7,46.2,29.9,48.4C20.1,50.7,10.1,49.1,1.3,46.7C-7.4,44.4,-14.8,41.4,-25.9,39.9C-37,38.4,-51.8,38.5,-50.6,32.1C-49.4,25.7,-32,12.8,-31.3,0.4C-30.6,-12,-46.4,-24,-47.1,-29.4C-47.8,-34.8,-33.3,-33.6,-22.9,-35.1C-12.5,-36.5,-6.2,-40.6,-2.2,-36.9C1.9,-33.1,3.8,-21.5,14.8,-20.4Z" transform="translate(100 100)" />
</svg>
